<svg width="156" height="340" viewBox="0 0 156 340" fill="none" xmlns="http://www.w3.org/2000/svg">
<path d="M77.5775 256.437C92.7848 256.437 105.113 243.572 105.113 227.705C105.113 211.836 92.7848 198.972 77.5775 198.972C62.3702 198.972 50.0423 211.836 50.0423 227.705C50.0423 243.572 62.3702 256.437 77.5775 256.437Z" fill="#C88497"/>
<path d="M59.8592 271.042C63.3939 271.042 66.266 273.879 66.3231 277.4L66.324 277.507V332.099C66.324 335.669 63.4296 338.564 59.8592 338.564C56.3245 338.564 53.4524 335.727 53.3953 332.206L53.3944 332.099V277.507C53.3944 273.937 56.2888 271.042 59.8592 271.042Z" fill="#EBBAAA"/>
<path d="M94.3381 271.761C97.8728 271.761 100.745 274.598 100.802 278.119L100.803 278.226V332.817C100.803 336.388 97.9085 339.282 94.3381 339.282C90.8034 339.282 87.9312 336.445 87.8742 332.924L87.8733 332.817V278.226C87.8733 274.655 90.7677 271.761 94.3381 271.761Z" fill="#EBBAAA"/>
<path d="M77.5775 203.521H113.493V228.662C113.493 262.183 101.521 313.662 101.521 313.662C101.521 313.662 93.6384 318.13 87.155 316.057C83.9439 315.03 79.9719 313.662 79.9719 313.662L78.7747 258.592L77.5775 203.521Z" fill="#E0A1B2"/>
<path d="M77.5775 203.521H41.662V228.662C41.662 262.183 53.6339 313.662 53.6339 313.662C53.6339 313.662 61.5166 318.13 68.0001 316.057C71.2112 315.03 75.1832 313.662 75.1832 313.662L76.3804 258.592L77.5775 203.521Z" fill="#E0A1B2"/>
<path d="M127.899 334.972C127.899 327.621 123.176 326.726 115.478 324.207C111.707 322.972 107.86 321.896 103.955 321.25C101.502 320.843 100.843 323 96.5328 323C92.6893 323 87.8944 321.097 86.9014 320.685C86.7769 320.632 86.6292 320.587 86.53 320.678C86.5061 320.702 86.486 320.728 86.4709 320.759C86.0119 321.7 83.6032 326.846 83.6032 330.962C83.6032 334.108 83.3336 337.204 84.2018 338.803C84.5935 339.526 87.0393 339.919 87.8606 339.919H126.567C127.303 339.919 127.899 335.707 127.899 334.972Z" fill="#D0D4DB"/>
<mask id="mask0_0_651" style="mask-type:luminance" maskUnits="userSpaceOnUse" x="83" y="319" width="45" height="21">
<path fill-rule="evenodd" clip-rule="evenodd" d="M127.899 334.972C127.899 331.196 126.653 329.123 124.397 327.66C113.663 320.69 99.7445 320.362 86.9555 319.888C86.8508 319.888 86.5168 320.663 86.4711 320.759C86.0121 321.7 83.6034 326.846 83.6034 330.962C83.6034 334.108 83.3337 337.204 84.2019 338.803C84.5937 339.526 87.0395 339.919 87.8608 339.919H126.567C127.303 339.919 127.899 335.707 127.899 334.972Z" fill="white"/>
</mask>
<g mask="url(#mask0_0_651)">
<path d="M104.043 325.883C103.999 325.297 103.306 325.009 102.859 325.392L100.323 327.571C100.145 327.722 99.9033 327.78 99.6759 327.722L96.4037 326.879C95.8221 326.728 95.3244 327.317 95.5683 327.866L96.9111 330.89C97.0088 331.108 96.9899 331.364 96.8606 331.565L95.0966 334.338C94.778 334.838 95.1694 335.487 95.7608 335.439L99.1503 335.164C99.3809 335.145 99.6062 335.238 99.7558 335.415L101.958 338.006C102.342 338.458 103.078 338.276 103.207 337.697L103.919 334.491C103.971 334.254 104.138 334.062 104.362 333.976L107.449 332.786C108.01 332.571 108.074 331.804 107.557 331.498L104.648 329.781C104.445 329.661 104.314 329.451 104.297 329.216L104.043 325.883Z" fill="#E4E9F1"/>
<path d="M92.5818 322.042C89.7086 321.851 87.3142 320.287 86.3565 319.409C85.3987 320.366 83.0283 323 83.6029 323.958C84.3212 325.155 89.8283 326.113 92.2227 326.113C94.617 326.113 96.1734 322.282 92.5818 322.042Z" fill="#AEB5C0"/>
<path d="M123.076 326.836C126.176 325.083 124.96 328.555 127.746 330.03L133.645 341.339H86.6958C85.5486 339.698 80.1019 335.331 83.6032 335.331C91.2652 335.331 102.04 336.528 106.709 336.768C111.134 336.995 124.572 337.347 123.829 333.416C122.968 328.869 120.249 328.433 123.076 326.836Z" fill="#AEB5C0"/>
</g>
<path d="M104.082 320.455C104.43 320.243 104.884 320.354 105.096 320.702C105.307 321.05 105.197 321.503 104.849 321.715L103.771 322.339C103.729 322.364 103.693 322.385 103.666 322.402C103.61 322.436 103.556 322.469 103.504 322.502L103.427 322.552L108.657 321.348C109.317 321.196 109.808 321.936 109.432 322.482L109.408 322.515L107.977 324.384L113.81 322.727C114.53 322.522 115.053 323.391 114.559 323.93L114.531 323.96L111.347 327.116C111.058 327.402 110.591 327.4 110.305 327.111C110.029 326.833 110.02 326.392 110.276 326.104L110.309 326.068L111.459 324.928L106.241 326.411C105.571 326.601 105.043 325.846 105.43 325.286L105.454 325.253L106.991 323.245L101.726 324.457C101.279 324.56 100.851 324.233 100.825 323.782L100.823 323.738C100.823 322.726 101.522 321.994 102.808 321.198L102.899 321.142C102.958 321.106 103.046 321.054 103.148 320.995L104.082 320.455Z" fill="#AEB5C0"/>
<path fill-rule="evenodd" clip-rule="evenodd" d="M102.472 318.103C102.509 315.962 103.925 314.381 105.79 314.381C106.708 314.381 107.458 314.766 107.977 315.472C108.474 316.148 108.739 317.099 108.739 318.19C108.739 319.198 108.14 320.105 107.117 320.786C106.21 321.39 105.046 321.753 104.069 321.753C103.6 321.753 103.256 321.669 103.013 321.498C102.788 321.341 102.642 321.11 102.557 320.786C102.483 320.503 102.455 320.16 102.454 319.665L102.453 319.568L102.468 318.624L102.472 318.103ZM106.789 316.345C106.546 316.014 106.236 315.855 105.79 315.855C104.76 315.855 103.946 316.781 103.946 318.19L103.945 318.489L103.929 319.451L103.929 319.743C103.931 319.902 103.936 320.035 103.945 320.142L103.954 320.242L103.959 320.275L103.982 320.276L104.069 320.278C104.751 320.278 105.632 320.003 106.3 319.559C106.946 319.128 107.265 318.646 107.265 318.19C107.265 317.393 107.084 316.747 106.789 316.345Z" fill="#AEB5C0"/>
<path fill-rule="evenodd" clip-rule="evenodd" d="M97.708 318.994C97.8493 318.363 98.2446 317.877 98.8663 317.603C100.147 317.03 101.603 317.685 102.257 319.152C102.282 319.208 102.307 319.265 102.334 319.323L102.449 319.572L102.451 319.575L102.652 320.007L102.744 320.215C102.869 320.506 102.941 320.723 102.973 320.918C102.992 321.036 102.994 321.142 102.981 321.235C102.978 321.262 102.976 321.275 102.97 321.298L102.945 321.388L102.932 321.421L102.796 321.513L102.861 321.556C102.754 321.717 102.576 321.859 102.305 321.99L102.235 322.022C101.573 322.316 100.675 322.425 99.8781 322.296C98.981 322.149 98.3033 321.721 98.0024 321.047C97.6763 320.315 97.5731 319.599 97.708 318.994ZM101.042 320.045L100.91 319.752C100.574 318.998 99.968 318.726 99.4649 318.951C99.2704 319.037 99.1867 319.14 99.1473 319.316C99.0869 319.587 99.1446 319.987 99.3492 320.447C99.4233 320.613 99.6685 320.768 100.115 320.841C100.517 320.906 100.974 320.875 101.343 320.776L101.375 320.767L101.359 320.728L101.29 320.575L101.207 320.397L101.205 320.395L101.042 320.045Z" fill="#AEB5C0"/>
<path d="M26.5775 334.493C26.5775 327.143 31.3006 326.247 38.9985 323.728C42.7689 322.493 46.6169 321.418 50.5212 320.771C52.9747 320.364 53.6339 322.522 57.9437 322.522C61.7871 322.522 66.5821 320.618 67.5751 320.206C67.6996 320.153 67.8471 320.108 67.9462 320.199C67.9701 320.223 67.9905 320.249 68.0053 320.28C68.4643 321.221 70.8733 326.367 70.8733 330.483C70.8733 333.629 71.1429 336.725 70.2747 338.324C69.883 339.047 67.4371 339.44 66.6156 339.44H27.9093C27.1737 339.44 26.5775 335.228 26.5775 334.493Z" fill="#D0D4DB"/>
<mask id="mask1_0_651" style="mask-type:luminance" maskUnits="userSpaceOnUse" x="26" y="319" width="45" height="21">
<path fill-rule="evenodd" clip-rule="evenodd" d="M26.5775 334.493C26.5775 330.717 27.824 328.644 30.08 327.181C40.8139 320.211 54.7319 319.883 67.5212 319.409C67.6256 319.409 67.9596 320.184 68.0053 320.28C68.4643 321.221 70.8733 326.367 70.8733 330.483C70.8733 333.629 71.1429 336.725 70.2747 338.324C69.883 339.047 67.4371 339.44 66.6156 339.44H27.9093C27.1737 339.44 26.5775 335.228 26.5775 334.493Z" fill="white"/>
</mask>
<g mask="url(#mask1_0_651)">
<path d="M50.4331 325.405C50.4776 324.818 51.1708 324.531 51.6174 324.914L54.1535 327.093C54.3316 327.244 54.5732 327.301 54.8007 327.244L58.0726 326.401C58.6544 326.25 59.152 326.839 58.9082 327.387L57.5652 330.411C57.4675 330.629 57.4867 330.885 57.6157 331.086L59.3799 333.859C59.6983 334.36 59.3071 335.008 58.7157 334.961L55.326 334.685C55.0957 334.666 54.8701 334.759 54.7205 334.937L52.5184 337.527C52.1341 337.98 51.3985 337.798 51.2697 337.218L50.5574 334.012C50.5052 333.775 50.3388 333.584 50.1139 333.498L47.0271 332.308C46.4664 332.092 46.4024 331.326 46.9196 331.019L49.829 329.303C50.0311 329.183 50.1621 328.972 50.18 328.738L50.4331 325.405Z" fill="#E4E9F1"/>
<path d="M61.8944 321.564C64.7677 321.372 67.162 319.809 68.1198 318.93C69.0775 319.888 71.448 322.522 70.8733 323.479C70.155 324.677 64.648 325.634 62.2536 325.634C59.8592 325.634 58.3029 321.803 61.8944 321.564Z" fill="#AEB5C0"/>
<path d="M31.401 326.357C28.3005 324.605 29.5164 328.077 26.7305 329.551L20.8311 340.86H67.7807C68.9279 339.22 74.3746 334.853 70.8733 334.853C63.2113 334.853 52.4367 336.05 47.7677 336.289C43.3422 336.517 29.904 336.869 30.648 332.937C31.5083 328.39 34.2278 327.954 31.401 326.357Z" fill="#AEB5C0"/>
</g>
<path d="M49.3807 320.223C49.5845 319.888 50.0127 319.773 50.3549 319.954L51.425 320.573C51.4859 320.608 51.5382 320.639 51.5775 320.663L51.757 320.774C52.9869 321.549 53.653 322.27 53.653 323.259C53.653 323.718 53.2392 324.062 52.7934 323.986L52.7501 323.978L47.4848 322.766L49.0228 324.774C49.4461 325.327 48.9389 326.095 48.275 325.942L48.2358 325.932L43.0168 324.449L44.1671 325.589C44.4447 325.865 44.4577 326.306 44.2046 326.597L44.1716 326.632C43.8963 326.91 43.455 326.923 43.1642 326.67L43.1287 326.637L39.9456 323.481C39.4143 322.954 39.9145 322.072 40.6266 322.238L40.6664 322.248L46.4995 323.905L45.0682 322.036C44.6564 321.498 45.126 320.745 45.7789 320.861L45.819 320.869L51.049 322.073C50.9985 322.04 50.9464 322.007 50.8927 321.974L50.7452 321.884C50.4561 321.712 49.7623 321.318 49.6274 321.236C49.2795 321.024 49.169 320.571 49.3807 320.223Z" fill="#AEB5C0"/>
<path fill-rule="evenodd" clip-rule="evenodd" d="M46.4994 314.993C47.0181 314.287 47.7676 313.902 48.6866 313.902C50.5765 313.902 52.0051 315.527 52.0051 317.711L52.0059 317.916L52.0211 318.885L52.0229 319.186C52.0212 319.682 51.9926 320.025 51.9189 320.307C51.834 320.631 51.6887 320.861 51.4638 321.019C51.219 321.19 50.8756 321.274 50.4074 321.274C49.4305 321.274 48.266 320.911 47.3591 320.308C46.3361 319.626 45.737 318.72 45.737 317.711C45.737 316.619 46.0024 315.669 46.4994 314.993ZM50.5302 317.711C50.5302 316.302 49.7166 315.377 48.6865 315.377C48.2402 315.377 47.9305 315.536 47.6879 315.866C47.3921 316.269 47.2118 316.914 47.2118 317.711C47.2118 318.168 47.5306 318.65 48.1764 319.08C48.8446 319.525 49.7256 319.799 50.4073 319.799C50.4387 319.799 50.4677 319.799 50.4944 319.798L50.5174 319.796L50.5217 319.764C50.5364 319.64 50.5452 319.474 50.5475 319.257L50.548 319.182C50.5481 319.111 50.5478 319.043 50.547 318.962L50.5318 318.017L50.5302 317.711Z" fill="#AEB5C0"/>
<path fill-rule="evenodd" clip-rule="evenodd" d="M51.6155 321.077L51.6051 321.061L51.5694 320.995C51.5461 320.951 51.5366 320.927 51.5237 320.883L51.5056 320.817C51.4982 320.779 51.4982 320.779 51.4956 320.761L51.4894 320.701C51.4836 320.62 51.4883 320.533 51.5037 320.437C51.5324 320.261 51.5952 320.065 51.6999 319.813L51.7677 319.655C51.7795 319.629 51.7915 319.602 51.8043 319.573L52.0245 319.096L52.0277 319.092L52.1104 318.914L52.2525 318.601C52.9214 317.185 54.3512 316.561 55.6064 317.123C56.2319 317.398 56.627 317.884 56.7682 318.515C56.9035 319.12 56.8002 319.837 56.4737 320.569C56.1734 321.242 55.4957 321.671 54.5969 321.818C53.8014 321.946 52.9035 321.837 52.2407 321.543C51.9304 321.404 51.7316 321.251 51.6155 321.077ZM55.3289 318.837C55.2894 318.661 55.2058 318.558 55.0077 318.471C54.5083 318.247 53.9024 318.52 53.5666 319.273C53.5339 319.347 53.5021 319.417 53.4675 319.493L53.2708 319.917L53.2692 319.918L53.1865 320.097L53.1007 320.288L53.1328 320.297C53.476 320.39 53.8944 320.422 54.2734 320.375L54.3602 320.362C54.8078 320.289 55.0528 320.134 55.1267 319.968C55.3317 319.508 55.3894 319.108 55.3289 318.837Z" fill="#AEB5C0"/>
<path d="M77.5775 116.606C92.7848 116.606 107.507 110.978 107.507 104.035C107.507 69.9155 92.7848 69.9155 77.5775 69.9155C62.3701 69.9155 47.6479 69.9155 47.6479 104.035C47.6479 110.978 62.3701 116.606 77.5775 116.606Z" fill="#2D2427"/>
<path fill-rule="evenodd" clip-rule="evenodd" d="M47.6254 140.112C46.8869 141.442 46.3207 143.653 45.4829 148.499L44.9679 151.491C44.7528 152.726 44.6523 153.253 44.4557 154.245C43.7231 157.938 42.8926 160.993 41.7249 163.906C40.2196 167.661 38.2203 170.944 35.5592 173.756C29.4738 180.184 20.6267 183.408 8.85915 183.408C3.96638 183.408 0 179.442 0 174.549C0 169.657 3.96638 165.69 8.85915 165.69C16.0681 165.69 20.2331 164.172 22.6913 161.575C24.6583 159.497 25.9397 156.367 26.9998 151.176L27.1797 150.27C27.2901 149.703 27.3782 149.222 27.5355 148.318L28.0889 145.102C28.5826 142.257 28.9253 140.54 29.4041 138.68C30.1529 135.771 31.0858 133.292 32.3974 131.05C35.109 126.415 39.1892 123.373 44.3908 122.19C45.2396 117.528 48.8315 113.608 53.7817 112.598L77.5774 107.747L101.373 112.598C106.323 113.608 109.915 117.528 110.764 122.19C115.966 123.373 120.046 126.415 122.758 131.05C124.029 133.224 124.945 135.621 125.682 138.417L125.751 138.68C126.23 140.54 126.572 142.257 127.066 145.102L127.7 148.778C127.842 149.584 127.926 150.024 128.059 150.695L128.155 151.176C129.215 156.367 130.497 159.497 132.464 161.575C134.922 164.172 139.087 165.69 146.296 165.69C151.189 165.69 155.155 169.657 155.155 174.549C155.155 179.442 151.189 183.408 146.296 183.408C134.528 183.408 125.681 180.184 119.596 173.756C116.935 170.944 114.935 167.661 113.43 163.906C112.296 161.077 111.48 158.112 110.762 154.56L110.571 153.595C110.441 152.926 110.34 152.374 110.161 151.34L109.616 148.177C108.809 143.554 108.251 141.412 107.53 140.112L101.521 165.342L112.711 201.028C113.131 202.368 112.323 203.775 110.946 204.054C104.791 205.302 88.7924 208.31 77.5774 208.31C66.3625 208.31 50.3636 205.302 44.2091 204.054C42.8323 203.775 42.0235 202.368 42.4437 201.028L53.6338 165.342L47.6254 140.112Z" fill="#F4D5CC"/>
<path d="M44.0017 153.103C42.708 146.637 46.8876 140.342 53.3493 139.024L77.5774 134.084L101.806 139.024C108.267 140.342 112.447 146.637 111.153 153.103L106.31 177.314C106.31 177.314 113.493 193.944 113.493 203.521C113.493 203.521 91.7274 208.31 77.5774 208.31C63.4274 208.31 41.6619 203.521 41.6619 203.521C41.6619 193.944 48.845 177.314 48.845 177.314L44.0017 153.103Z" fill="#E0A1B2"/>
<path d="M47.9579 176.772C48.7 175.707 50.1521 175.43 51.2316 176.136L51.3968 176.247C51.4654 176.292 51.561 176.353 51.6831 176.43L51.8914 176.558C52.2147 176.756 52.5871 176.972 53.0074 177.203C54.4973 178.023 56.2474 178.847 58.2401 179.62C63.9621 181.837 70.4514 183.169 77.5775 183.169C84.694 183.169 91.0132 181.841 96.4617 179.633C98.272 178.899 99.855 178.119 101.201 177.342L101.383 177.236C101.859 176.956 102.266 176.7 102.603 176.473L102.832 176.316C102.89 176.276 102.929 176.247 102.95 176.231C104.005 175.433 105.507 175.642 106.304 176.697C107.102 177.752 106.893 179.253 105.838 180.051L105.702 180.151C105.594 180.229 105.452 180.328 105.276 180.446C104.859 180.727 104.368 181.036 103.807 181.366C102.226 182.293 100.374 183.215 98.2602 184.071C92.2606 186.502 85.3359 187.958 77.5775 187.958C69.8285 187.958 62.7597 186.507 56.5099 184.085C54.3124 183.233 52.37 182.318 50.6986 181.398L50.3826 181.223C49.9711 180.991 49.5988 180.771 49.2667 180.566L49.0217 180.413C48.8078 180.277 48.6514 180.174 48.5539 180.106C47.4689 179.35 47.202 177.857 47.9579 176.772Z" fill="#B3818E"/>
<path d="M48.8543 194.259C50.0024 193.603 51.465 194.002 52.1211 195.15C52.7655 196.278 52.3922 197.709 51.291 198.381L51.2014 198.435L51.0923 198.504C51.0653 198.521 51.0363 198.54 51.0056 198.56C50.7714 198.716 50.5041 198.908 50.2121 199.137C49.3598 199.807 48.5015 200.629 47.7004 201.601C45.4173 204.374 44.0563 207.776 44.0563 211.902C44.0563 213.224 42.9843 214.296 41.6619 214.296C40.3396 214.296 39.2676 213.224 39.2676 211.902C39.2676 206.599 41.0492 202.145 44.0038 198.557C45.0358 197.304 46.1417 196.246 47.2535 195.372C47.6489 195.061 48.02 194.794 48.3587 194.57L48.483 194.488C48.6407 194.386 48.7659 194.31 48.8543 194.259Z" fill="#B3818E"/>
<path d="M51.9022 194.079C52.5685 192.937 54.0346 192.551 55.1768 193.217C56.2987 193.872 56.6909 195.297 56.0733 196.43L56.012 196.541L55.9458 196.668C55.9078 196.743 55.8663 196.828 55.822 196.922C55.6231 197.345 55.4209 197.84 55.2304 198.401C54.6451 200.123 54.31 202.027 54.3545 204.037C54.4121 206.633 55.1024 209.218 56.5681 211.757C57.2293 212.902 56.8369 214.366 55.6917 215.027C54.5465 215.689 53.0821 215.296 52.421 214.151C50.5427 210.898 49.642 207.525 49.567 204.143C49.5092 201.535 49.9406 199.084 50.6963 196.86C50.9464 196.124 51.2163 195.462 51.4894 194.882C51.5717 194.708 51.6502 194.549 51.7239 194.407L51.8135 194.238C51.8422 194.185 51.8671 194.14 51.8876 194.104L51.9022 194.079Z" fill="#B3818E"/>
<path d="M40.6788 137.034C42.0285 132.985 45.4314 129.961 49.6108 129.096L77.5774 123.31L105.544 129.096C109.723 129.961 113.126 132.985 114.476 137.034L119.479 152.042C119.479 152.042 115.254 155.214 112.296 156.831C100.287 163.397 77.5774 161.62 77.5774 161.62C77.5774 161.62 54.8681 163.397 42.8591 156.831C39.9011 155.214 35.676 152.042 35.676 152.042L40.6788 137.034Z" fill="#ECB3C3"/>
<rect x="69.1971" y="91.4648" width="16.7606" height="27.5352" rx="8.38028" fill="url(#paint0_linear_0_651)"/>
<path fill-rule="evenodd" clip-rule="evenodd" d="M38.0704 187.359C38.0704 181.739 42.6263 177.183 48.2464 177.183C53.8665 177.183 58.4225 181.739 58.4225 187.359C58.4225 192.979 53.8665 197.535 48.2464 197.535C42.6263 197.535 38.0704 192.979 38.0704 187.359ZM53.6339 187.359C53.6339 184.384 51.2219 181.972 48.2466 181.972C45.2712 181.972 42.8593 184.384 42.8593 187.359C42.8593 190.335 45.2712 192.747 48.2466 192.747C51.2219 192.747 53.6339 190.335 53.6339 187.359Z" fill="#B3818E"/>
<path fill-rule="evenodd" clip-rule="evenodd" d="M51.2394 190.951C51.2394 185.331 55.7954 180.775 61.4155 180.775C67.0356 180.775 71.5916 185.331 71.5916 190.951C71.5916 196.571 67.0356 201.127 61.4155 201.127C55.7954 201.127 51.2394 196.571 51.2394 190.951ZM66.8027 190.951C66.8027 187.976 64.3907 185.564 61.4154 185.564C58.4401 185.564 56.0281 187.976 56.0281 190.951C56.0281 193.927 58.4401 196.339 61.4154 196.339C64.3907 196.339 66.8027 193.927 66.8027 190.951Z" fill="#B3818E"/>
<path fill-rule="evenodd" clip-rule="evenodd" d="M77.5503 1.404e-05C77.5331 -1.755e-05 77.5673 1.404e-05 77.5503 1.404e-05C88.2781 1.404e-05 104.342 3.03709 111.122 17.0001C114.699 24.3682 116.522 29.5805 115.914 38.5493C108.473 29.0853 88.25 22.7465 77.5501 22.7465C64.0387 22.7465 49.7726 30.3701 39.1864 38.5493C38.7015 29.5376 40.401 24.3682 43.9784 17.0001C50.7581 3.03706 66.543 -0.00011848 77.5503 1.404e-05Z" fill="#B3818E"/>
<path d="M78.0563 68.7182C107.011 68.7182 132.648 69.476 132.648 56.2675C132.648 36.6062 107.011 15.8027 78.0563 15.8027C49.1017 15.8027 23.4647 36.6062 23.4647 56.2675C23.4647 69.476 49.1017 68.7182 78.0563 68.7182Z" fill="#ECB3C3"/>
<path d="M115.648 77.0985C120.937 77.0985 125.225 72.8105 125.225 67.5211C125.225 62.2317 120.937 57.9436 115.648 57.9436C110.358 57.9436 106.07 62.2317 106.07 67.5211C106.07 72.8105 110.358 77.0985 115.648 77.0985Z" fill="#EFC6BD"/>
<path d="M39.507 77.0985C34.2176 77.0985 29.9295 72.8105 29.9295 67.5211C29.9295 62.2317 34.2176 57.9436 39.507 57.9436C44.7964 57.9436 49.0844 62.2317 49.0844 67.5211C49.0844 72.8105 44.7964 77.0985 39.507 77.0985Z" fill="#EFC6BD"/>
<path d="M41.6619 46.6902C41.6619 26.8545 57.7418 10.7747 77.5774 10.7747C97.4131 10.7747 113.493 26.8545 113.493 46.6902V63.0614L112.349 73.1292C110.341 90.8035 95.3865 104.155 77.5985 104.155C60.2037 104.155 45.4527 91.3712 42.9795 74.1531L42.0872 67.9382C41.8039 65.9674 41.6619 63.9789 41.6619 61.9878V46.6902Z" fill="#F4D5CC"/>
<path d="M88.5393 81.9627C88.8943 81.4049 89.6343 81.2406 90.1921 81.5956C90.7498 81.9506 90.9142 82.6906 90.5592 83.2484C89.8342 84.3874 88.1916 85.6902 86.1322 86.6793C83.6076 87.8919 80.6126 88.5915 77.3226 88.5915C74.0341 88.5915 71.2002 87.8955 68.8293 86.6622C67.0304 85.7264 65.6134 84.5382 64.6687 83.3509C64.2571 82.8335 64.3428 82.0804 64.8602 81.6687C65.3776 81.257 66.1307 81.3428 66.5424 81.8601C67.2823 82.79 68.4397 83.7606 69.9343 84.5381C71.9646 85.5942 74.4196 86.1971 77.3226 86.1971C80.249 86.1971 82.8904 85.5801 85.0955 84.521C86.7452 83.7286 88.0236 82.7265 88.5068 82.0121L88.5393 81.9627Z" fill="#C99584"/>
<path d="M54.8309 79.4929C58.798 79.4929 62.014 76.2769 62.014 72.3098C62.014 68.3427 58.798 65.1267 54.8309 65.1267C50.8638 65.1267 47.6478 68.3427 47.6478 72.3098C47.6478 76.2769 50.8638 79.4929 54.8309 79.4929Z" fill="#F2CACA"/>
<path d="M63.2112 54.3521C63.8724 54.3521 64.4084 54.888 64.4084 55.5492C64.4084 56.1925 63.901 56.7174 63.2645 56.7453L63.2112 56.7464H56.0281C55.3669 56.7464 54.8309 56.2104 54.8309 55.5492C54.8309 54.9059 55.3383 54.3811 55.9748 54.3532L56.0281 54.3521H63.2112Z" fill="black"/>
<path d="M99.1267 54.3521C99.7879 54.3521 100.324 54.888 100.324 55.5492C100.324 56.1925 99.8164 56.7174 99.18 56.7453L99.1267 56.7464H91.9436C91.2824 56.7464 90.7464 56.2104 90.7464 55.5492C90.7464 54.9059 91.2538 54.3811 91.8903 54.3532L91.9436 54.3521H99.1267Z" fill="black"/>
<path d="M91.9436 52.4365C93.506 52.4365 94.7772 53.6836 94.8159 55.2367L94.8169 55.3098V62.4929C94.8169 64.0797 93.5305 65.3661 91.9436 65.3661C90.3812 65.3661 89.11 64.119 89.0713 62.5659L89.0704 62.4929V55.3098C89.0704 53.7229 90.3568 52.4365 91.9436 52.4365Z" fill="black"/>
<path d="M63.2122 52.4365C64.7746 52.4365 66.0458 53.6836 66.0845 55.2367L66.0854 55.3098V62.4929C66.0854 64.0797 64.799 65.3661 63.2122 65.3661C61.6497 65.3661 60.3786 64.119 60.3398 62.5659L60.3389 62.4929V55.3098C60.3389 53.7229 61.6253 52.4365 63.2122 52.4365Z" fill="black"/>
<path d="M87.9487 43.5794L101.597 44.2977C102.389 44.3394 102.997 45.0155 102.956 45.8079C102.915 46.5818 102.269 47.1803 101.501 47.1689L101.446 47.167L87.7977 46.4487C87.0053 46.407 86.3968 45.7309 86.4385 44.9385C86.4793 44.1646 87.1253 43.5661 87.8936 43.5776L87.9487 43.5794Z" fill="#271E1E"/>
<path d="M67.2061 43.5794C67.9984 43.5377 68.6746 44.1462 68.7163 44.9385C68.757 45.7124 68.1774 46.3755 67.4121 46.4448L67.3571 46.4487L53.7092 47.167C52.9169 47.2087 52.2408 46.6002 52.1991 45.8079C52.1584 45.034 52.738 44.3709 53.5033 44.3017L53.5582 44.2977L67.2061 43.5794Z" fill="#271E1E"/>
<path d="M100.324 79.4929C104.291 79.4929 107.507 76.2769 107.507 72.3098C107.507 68.3427 104.291 65.1267 100.324 65.1267C96.3568 65.1267 93.1408 68.3427 93.1408 72.3098C93.1408 76.2769 96.3568 79.4929 100.324 79.4929Z" fill="#F2CACA"/>
<path d="M75.884 60.1667L79.2708 62.4246C78.1197 64.1512 77.2182 66.743 77.2182 68.6284C77.2182 70.4457 77.8742 71.21 79.8823 71.2318L79.9718 71.2323V75.3027C75.5319 75.3027 73.1478 72.6207 73.1478 68.6284C73.1478 65.9249 74.2722 62.6432 75.7988 60.2962L75.884 60.1667Z" fill="#EBBAAA"/>
<path d="M101.366 47.2821C96.5868 44.1242 87.5861 31.1338 83.683 25.0334C106.265 19.1723 115.704 35.9184 117.615 47.2821C119.527 58.6455 115.704 78.0243 117.376 77.3067C118.715 76.7326 120.085 76.1115 120.722 75.6331C121.12 91.9806 125.531 121.945 120.722 124.315C114.408 127.425 96.4862 127.664 99.4732 119.291C102.46 110.918 111.283 57.8082 110.327 55.0571C109.371 52.306 107.34 51.2294 101.366 47.2821Z" fill="#2D2427"/>
<path d="M53.7889 47.2821C58.568 44.1242 67.5687 31.1338 71.4718 25.0334C48.89 19.1723 39.4512 35.9184 37.5395 47.2821C35.6279 58.6455 39.4512 78.0243 37.7785 77.3067C36.4403 76.7326 35.0702 76.1115 34.4331 75.6331C34.0349 91.9806 29.6235 121.945 34.4331 124.315C40.7465 127.425 58.6686 127.664 55.6816 119.291C52.6947 110.918 43.8719 57.8082 44.8277 55.0571C45.7836 52.306 47.8147 51.2294 53.7889 47.2821Z" fill="#2D2427"/>
<path fill-rule="evenodd" clip-rule="evenodd" d="M77.5609 8.85914C77.5449 8.85912 77.5769 8.85914 77.5609 8.85914C92.0186 8.85914 115.239 14.9148 113.389 35.4366C106.439 28.7879 87.5533 24.8394 77.5609 24.8394C64.9426 24.8394 51.6196 29.6906 41.7333 35.4366C40.2296 14.4101 62.8528 8.85902 77.5609 8.85914Z" fill="#ECB3C3"/>
<defs>
<linearGradient id="paint0_linear_0_651" x1="75.7556" y1="103.916" x2="75.7556" y2="109.901" gradientUnits="userSpaceOnUse">
<stop stop-color="#EBBAAA"/>
<stop offset="1" stop-color="#F4D5CC"/>
</linearGradient>
</defs>
</svg>
