<svg width="147" height="333" viewBox="0 0 147 333" fill="none" xmlns="http://www.w3.org/2000/svg">
<path d="M69.8854 218.107C71.096 223.962 71.2426 241.536 70.384 263.766C69.6176 283.61 68.1597 304.122 66.9292 312.74C66.3437 316.84 69.1933 320.639 73.2938 321.225C77.3944 321.81 81.1931 318.961 81.7786 314.86C83.0994 305.61 84.588 284.666 85.3728 264.345C86.2864 240.69 86.1357 222.619 84.5747 215.07C83.7359 211.014 79.7677 208.405 75.7114 209.244C71.655 210.083 69.0467 214.051 69.8854 218.107Z" fill="#F6DDD6"/>
<path d="M38.5942 213.552C36.9907 221.307 35.7927 241.044 35.4968 262.45C35.177 285.578 35.9569 305.057 37.9098 314.111C38.7831 318.16 42.7735 320.735 46.8225 319.861C50.8716 318.988 53.4459 314.998 52.5726 310.949C50.943 303.393 50.1916 284.626 50.4953 262.657C50.778 242.208 51.9381 223.095 53.2834 216.59C54.1222 212.533 51.5139 208.565 47.4576 207.726C43.4012 206.887 39.433 209.496 38.5942 213.552Z" fill="#F6DDD6"/>
<path d="M16.806 279.75L29.306 182.75H43.306C47.306 213.75 44.006 283.55 38.806 284.75C33.606 285.95 18.4727 282.418 16.806 279.75Z" fill="#BF7E68"/>
<path d="M108.332 279.75L95.8323 182.75H81.8323C77.8323 213.75 81.1323 283.55 86.3323 284.75C91.5323 285.95 106.666 282.418 108.332 279.75Z" fill="#BF7E68"/>
<path d="M33.1403 290.25C36.3903 292.75 61.9121 295.418 63.5788 292.75V240.75L59.3903 189H38.6051C34.6051 220 29.8903 287.75 33.1403 290.25Z" fill="#C99584"/>
<path d="M60.1055 289.907C66.4935 291.905 74.67 291.655 92.556 289.907C92.556 289.907 89.211 264.692 87.7013 236.235C86.1913 207.777 84.3795 183.063 84.3795 183.063L57.806 186.558C60.1055 221.007 61.6388 240.229 60.1055 289.907Z" fill="#D79D8A"/>
<mask id="mask0_0_2095" style="mask-type:luminance" maskUnits="userSpaceOnUse" x="17" y="182" width="92" height="112">
<path fill-rule="evenodd" clip-rule="evenodd" d="M29.556 182.75L17.056 279.75C18.2284 281.625 26.064 283.93 32.4185 284.715C32.571 287.887 32.884 289.86 33.3903 290.25C36.6403 292.75 62.162 295.418 63.8288 292.75V290.738C69.8235 291.775 77.9783 291.355 92.806 289.908C92.806 289.908 92.5625 288.07 92.177 284.83C98.6843 284.188 107.345 281.73 108.582 279.75L96.0823 182.75H82.0823C82.0543 182.968 82.0265 183.187 81.999 183.409L58.056 186.558C58.111 187.38 58.1655 188.194 58.2195 189H44.2225C44.028 186.782 43.8063 184.69 43.556 182.75H29.556Z" fill="white"/>
</mask>
<g mask="url(#mask0_0_2095)">
<path fill-rule="evenodd" clip-rule="evenodd" d="M39.2836 170.908L33.8203 296.038L37.2121 296.188L42.6753 171.056L39.2836 170.908ZM45.3886 171.098L39.9253 296.23L45.0938 296.455L50.5571 171.324L45.3886 171.098Z" fill="#C57B5C"/>
<rect x="20.9957" y="296.043" width="125.25" height="3.46318" transform="rotate(-84 20.9957 296.043)" fill="#AC6C57"/>
<path fill-rule="evenodd" clip-rule="evenodd" d="M52.9856 172.51L54.0786 297.755L55.8568 297.74L54.7638 172.495L52.9856 172.51ZM59.1998 297.733L58.1068 172.488L61.5018 172.458L62.5948 297.703L59.1998 297.733ZM65.9378 297.695L64.8448 172.449L70.0178 172.404L71.1108 297.65L65.9378 297.695Z" fill="#C57B5C"/>
<path fill-rule="evenodd" clip-rule="evenodd" d="M73.4988 171.922L82.2358 296.868L84.0098 296.743L75.2728 171.798L73.4988 171.922ZM78.8268 171.695L87.5638 296.64L90.9505 296.403L82.2135 171.458L78.8268 171.695Z" fill="#C57B5C"/>
<rect x="99.2261" y="296.3" width="125.25" height="3.395" transform="rotate(-96 99.2261 296.3)" fill="#AC6C57"/>
</g>
<path d="M109.847 327.25C109.847 319.575 104.916 318.638 96.8783 316.008C92.9415 314.72 88.9238 313.598 84.8473 312.923C82.2855 312.498 81.5973 314.75 77.0973 314.75C73.0843 314.75 68.0778 312.763 67.0413 312.333C66.911 312.278 66.757 312.23 66.6535 312.325C66.6285 312.348 66.6073 312.378 66.5918 312.408C66.1125 313.393 63.5973 318.763 63.5973 323.06C63.5973 326.348 63.3158 329.58 64.2223 331.25C64.6313 332.003 67.185 332.415 68.0428 332.415H108.457C109.225 332.415 109.847 328.018 109.847 327.25Z" fill="#D0D4DB"/>
<mask id="mask1_0_2095" style="mask-type:luminance" maskUnits="userSpaceOnUse" x="63" y="312" width="47" height="21">
<path d="M109.847 327.25C109.847 319.575 104.916 318.638 96.8783 316.008C92.9415 314.72 88.9238 313.598 84.8473 312.923C82.2855 312.498 81.5973 314.75 77.0973 314.75C73.0843 314.75 68.0778 312.763 67.0413 312.333C66.911 312.278 66.757 312.23 66.6535 312.325C66.6285 312.348 66.6073 312.378 66.5918 312.408C66.1125 313.393 63.5973 318.763 63.5973 323.06C63.5973 326.348 63.3158 329.58 64.2223 331.25C64.6313 332.003 67.185 332.415 68.0428 332.415H108.457C109.225 332.415 109.847 328.018 109.847 327.25Z" fill="white"/>
</mask>
<g mask="url(#mask1_0_2095)">
<path d="M84.9396 317.76C84.8931 317.145 84.1693 316.847 83.7031 317.247L81.0548 319.52C80.8691 319.68 80.6168 319.74 80.3793 319.677L76.9628 318.8C76.3556 318.642 75.8358 319.257 76.0906 319.83L77.4926 322.985C77.5946 323.215 77.5748 323.482 77.4398 323.692L75.5981 326.587C75.2653 327.11 75.6741 327.787 76.2916 327.737L79.8306 327.45C80.0713 327.43 80.3066 327.527 80.4628 327.712L82.7623 330.417C83.1633 330.89 83.9316 330.7 84.0658 330.095L84.8098 326.745C84.8643 326.5 85.0381 326.3 85.2726 326.207L88.4958 324.967C89.0811 324.742 89.1478 323.942 88.6078 323.622L85.5703 321.827C85.3593 321.705 85.2223 321.485 85.2038 321.24L84.9396 317.76Z" fill="#E4E9F1"/>
<path d="M72.9723 313.75C69.9723 313.55 67.4723 311.918 66.4723 311C65.4723 312 62.9973 314.75 63.5973 315.75C64.3473 317 70.0973 318 72.5973 318C75.0973 318 76.7223 314 72.9723 313.75Z" fill="#AEB5C0"/>
<path d="M104.811 318.755C108.048 316.925 106.779 320.55 109.688 322.09L115.847 333.897H66.8263C65.6285 332.185 59.9415 327.625 63.5973 327.625C71.5973 327.625 82.8473 328.875 87.7223 329.125C92.343 329.362 106.374 329.73 105.597 325.625C104.699 320.877 101.86 320.422 104.811 318.755Z" fill="#AEB5C0"/>
</g>
<path d="M86.4118 317.102C85.961 317.69 86.5207 318.513 87.2337 318.311L92.6838 316.761L91.4815 317.953C91.1796 318.253 91.1777 318.74 91.4772 319.042C91.7767 319.344 92.2642 319.346 92.5661 319.047L95.8896 315.749C96.4544 315.189 95.9019 314.244 95.1367 314.462L89.0468 316.194L90.5408 314.243C90.9796 313.67 90.46 312.863 89.7569 313.025L84.2962 314.281C84.3751 314.23 84.458 314.178 84.5449 314.125C84.7848 313.979 85.6274 313.501 85.7804 313.408C86.1437 313.187 86.2591 312.713 86.0381 312.35C85.8171 311.987 85.3434 311.871 84.9801 312.092C84.8535 312.169 84.0108 312.648 83.7444 312.81C82.3406 313.664 81.5773 314.439 81.5773 315.52C81.5773 316.015 82.0376 316.381 82.52 316.27L88.0176 315.005L86.4118 317.102Z" fill="#AEB5C0"/>
<path fill-rule="evenodd" clip-rule="evenodd" d="M83.2895 310.471C83.2956 310.142 83.2981 309.947 83.2981 309.728C83.2981 307.447 84.7897 305.75 86.7628 305.75C87.724 305.75 88.5068 306.151 89.047 306.889C89.5656 307.596 89.8428 308.588 89.8428 309.728C89.8428 310.78 89.2171 311.727 88.1488 312.438C87.2022 313.069 85.9864 313.448 84.9663 313.448C84.4771 313.448 84.1178 313.36 83.864 313.182C83.6288 313.017 83.4766 312.776 83.3879 312.438C83.3108 312.143 83.2811 311.784 83.2796 311.265C83.279 311.079 83.2808 310.948 83.2881 310.563L83.2882 310.538L83.2895 310.471ZM84.8279 310.577C84.8207 310.964 84.8189 311.09 84.8195 311.261C84.8203 311.549 84.8313 311.758 84.851 311.905C84.8852 311.907 84.9237 311.908 84.9663 311.908C85.6781 311.908 86.598 311.621 87.2953 311.157C87.9699 310.708 88.3028 310.204 88.3028 309.728C88.3028 308.896 88.1145 308.222 87.8049 307.8C87.5527 307.455 87.2306 307.29 86.7628 307.29C85.6875 307.29 84.838 308.256 84.838 309.728C84.838 309.959 84.8354 310.162 84.8291 310.5L84.828 310.553L84.8279 310.577Z" fill="#AEB5C0"/>
<path fill-rule="evenodd" clip-rule="evenodd" d="M83.7047 313.242L83.7027 313.241C83.7668 313.135 83.7706 313.128 83.7901 313.072C83.8094 313.035 83.8136 313.013 83.8178 312.978C83.8196 312.971 83.8207 312.965 83.8223 312.956L83.8298 312.912C83.8441 312.81 83.8416 312.699 83.8219 312.576C83.7855 312.353 83.6983 312.103 83.5455 311.757C83.5152 311.688 83.4826 311.616 83.4395 311.523L83.3265 311.279L83.3275 311.282C83.1623 310.928 83.1416 310.884 83.0745 310.732L83.0741 310.732C82.3923 309.201 80.8723 308.517 79.5355 309.112C78.8832 309.403 78.4718 309.909 78.3247 310.567C78.1833 311.195 78.2912 311.943 78.6316 312.71C78.9456 313.414 79.6524 313.859 80.5902 314.012C81.4198 314.149 82.3582 314.036 83.0508 313.729C83.376 313.584 83.5834 313.424 83.7047 313.242ZM79.8272 310.904C79.8688 310.718 79.9571 310.61 80.1623 310.518C80.6835 310.286 81.3166 310.571 81.6673 311.358C81.74 311.521 81.7621 311.569 81.9266 311.921C81.9431 311.957 81.9777 312.031 82.0051 312.09C82.022 312.127 82.0362 312.157 82.0419 312.17C82.0813 312.255 82.1103 312.319 82.1364 312.378L82.1541 312.418C81.7629 312.529 81.2707 312.564 80.8399 312.493C80.37 312.416 80.115 312.255 80.0384 312.084C79.8246 311.602 79.7643 311.184 79.8272 310.904Z" fill="#AEB5C0"/>
<path d="M10.2648 327.25C10.2648 319.575 15.1963 318.638 23.2338 316.008C27.1706 314.72 31.1883 313.598 35.2648 312.923C37.8266 312.498 38.5148 314.75 43.0148 314.75C47.0278 314.75 52.0343 312.763 53.0708 312.333C53.2011 312.278 53.3551 312.23 53.4586 312.325C53.4836 312.348 53.5048 312.378 53.5203 312.408C53.9996 313.393 56.5148 318.763 56.5148 323.06C56.5148 326.348 56.7963 329.58 55.8898 331.25C55.4808 332.003 52.9271 332.415 52.0693 332.415H11.6553C10.8873 332.415 10.2648 328.018 10.2648 327.25Z" fill="#D0D4DB"/>
<mask id="mask2_0_2095" style="mask-type:luminance" maskUnits="userSpaceOnUse" x="10" y="312" width="47" height="21">
<path d="M10.2648 327.25C10.2648 319.575 15.1963 318.638 23.2338 316.008C27.1706 314.72 31.1883 313.598 35.2648 312.923C37.8266 312.498 38.5148 314.75 43.0148 314.75C47.0278 314.75 52.0343 312.763 53.0708 312.333C53.2011 312.278 53.3551 312.23 53.4586 312.325C53.4836 312.348 53.5048 312.378 53.5203 312.408C53.9996 313.393 56.5148 318.763 56.5148 323.06C56.5148 326.348 56.7963 329.58 55.8898 331.25C55.4808 332.003 52.9271 332.415 52.0693 332.415H11.6553C10.8873 332.415 10.2648 328.018 10.2648 327.25Z" fill="white"/>
</mask>
<g mask="url(#mask2_0_2095)">
<path d="M35.1726 317.76C35.2191 317.145 35.9428 316.847 36.4091 317.247L39.0573 319.52C39.2431 319.68 39.4953 319.74 39.7328 319.677L43.1493 318.8C43.7566 318.642 44.2763 319.257 44.0216 319.83L42.6196 322.985C42.5176 323.215 42.5373 323.482 42.6723 323.692L44.5141 326.587C44.8468 327.11 44.4381 327.787 43.8206 327.737L40.2816 327.45C40.0408 327.43 39.8056 327.527 39.6493 327.712L37.3498 330.417C36.9488 330.89 36.1806 330.7 36.0463 330.095L35.3023 326.745C35.2478 326.5 35.0741 326.3 34.8396 326.207L31.6163 324.967C31.0311 324.742 30.9643 323.942 31.5043 323.622L34.5418 321.827C34.7528 321.705 34.8898 321.485 34.9083 321.24L35.1726 317.76Z" fill="#E4E9F1"/>
<path d="M47.1398 313.75C50.1398 313.55 52.6398 311.918 53.6398 311C54.6398 312 57.1148 314.75 56.5148 315.75C55.7648 317 50.0148 318 47.5148 318C45.0148 318 43.3898 314 47.1398 313.75Z" fill="#AEB5C0"/>
<path d="M15.3008 318.755C12.0638 316.925 13.3333 320.55 10.4246 322.09L4.26482 333.897H53.2858C54.4836 332.185 60.1706 327.625 56.5148 327.625C48.5148 327.625 37.2648 328.875 32.3898 329.125C27.7691 329.362 13.7381 329.73 14.5148 325.625C15.4131 320.877 18.2526 320.422 15.3008 318.755Z" fill="#AEB5C0"/>
</g>
<path d="M33.7004 317.102C34.1511 317.69 33.5914 318.513 32.8784 318.311L27.4283 316.761L28.6306 317.953C28.9325 318.253 28.9344 318.74 28.6349 319.042C28.3354 319.344 27.8479 319.346 27.546 319.047L24.2225 315.749C23.6577 315.189 24.2102 314.244 24.9755 314.462L31.0653 316.194L29.5713 314.243C29.1326 313.67 29.6521 312.863 30.3553 313.025L35.8159 314.281C35.737 314.23 35.6541 314.178 35.5672 314.125C35.3273 313.979 34.4847 313.501 34.3317 313.408C33.9684 313.187 33.853 312.713 34.074 312.35C34.295 311.987 34.7687 311.871 35.132 312.092C35.2586 312.169 36.1013 312.648 36.3677 312.81C37.7715 313.664 38.5348 314.439 38.5348 315.52C38.5348 316.015 38.0745 316.381 37.5921 316.27L32.0945 315.005L33.7004 317.102Z" fill="#AEB5C0"/>
<path fill-rule="evenodd" clip-rule="evenodd" d="M36.8226 310.471C36.8166 310.142 36.814 309.947 36.814 309.728C36.814 307.447 35.3224 305.75 33.3493 305.75C32.3881 305.75 31.6053 306.151 31.0651 306.889C30.5465 307.596 30.2694 308.588 30.2694 309.728C30.2694 310.78 30.8951 311.727 31.9633 312.438C32.9099 313.069 34.1257 313.448 35.1458 313.448C35.635 313.448 35.9944 313.36 36.2481 313.182C36.4833 313.017 36.6355 312.776 36.7242 312.438C36.8013 312.143 36.8311 311.784 36.8325 311.265C36.8332 311.079 36.8313 310.948 36.824 310.563L36.8239 310.538L36.8226 310.471ZM35.2842 310.577C35.2914 310.964 35.2932 311.09 35.2926 311.261C35.2918 311.549 35.2809 311.758 35.2612 311.905C35.2269 311.907 35.1885 311.908 35.1458 311.908C34.434 311.908 33.5142 311.621 32.8168 311.157C32.1422 310.708 31.8093 310.204 31.8093 309.728C31.8093 308.896 31.9977 308.222 32.3072 307.8C32.5594 307.455 32.8815 307.29 33.3493 307.29C34.4246 307.29 35.2741 308.256 35.2741 309.728C35.2741 309.959 35.2767 310.162 35.283 310.5L35.2841 310.553L35.2842 310.577Z" fill="#AEB5C0"/>
<path fill-rule="evenodd" clip-rule="evenodd" d="M36.4074 313.242L36.4094 313.241C36.3453 313.135 36.3415 313.128 36.322 313.072C36.3027 313.035 36.2985 313.013 36.2943 312.978C36.2925 312.971 36.2915 312.965 36.2898 312.956L36.2823 312.912C36.268 312.81 36.2706 312.699 36.2903 312.576C36.3267 312.353 36.4139 312.103 36.5666 311.757C36.5969 311.688 36.6295 311.616 36.6726 311.523L36.7857 311.279L36.7847 311.282C36.9499 310.928 36.9705 310.884 37.0377 310.732L37.038 310.732C37.7198 309.201 39.2398 308.517 40.5767 309.112C41.2289 309.403 41.6403 309.909 41.7874 310.567C41.9288 311.195 41.8209 311.943 41.4805 312.71C41.1665 313.414 40.4597 313.859 39.5219 314.012C38.6923 314.149 37.7539 314.036 37.0613 313.729C36.7361 313.584 36.5287 313.424 36.4074 313.242ZM40.2849 310.904C40.2434 310.718 40.155 310.61 39.9498 310.518C39.4286 310.286 38.7955 310.571 38.4448 311.358C38.3722 311.521 38.35 311.569 38.1855 311.921C38.169 311.957 38.1345 312.031 38.107 312.09C38.0901 312.127 38.0759 312.157 38.0703 312.17C38.0308 312.255 38.0018 312.319 37.9757 312.378L37.958 312.418C38.3492 312.529 38.8415 312.564 39.2722 312.493C39.7421 312.416 39.9971 312.255 40.0737 312.084C40.2875 311.602 40.3478 311.184 40.2849 310.904Z" fill="#AEB5C0"/>
<rect x="28.3052" y="95.7687" width="76.0302" height="36.5145" rx="18.2572" transform="rotate(-7.99571 28.3052 95.7687)" fill="#61401B"/>
<path d="M74.556 132.937L93.806 117.187" stroke="#9DB7C9" stroke-width="2.75"/>
<path d="M11.5561 133C11.5561 136.292 11.6236 134.917 10.7659 150.733C9.97976 165.232 9.72531 175.235 10.1295 185.763C10.7104 200.89 12.7067 213.682 16.6386 224.231C18.4228 229.018 23.7497 231.452 28.5367 229.668C33.3236 227.883 35.7578 222.556 33.9736 217.769C30.8418 209.367 29.1278 198.385 28.6159 185.053C28.2389 175.233 28.4812 165.706 29.2388 151.735C29.2829 150.922 29.3279 150.104 29.3881 149.019C29.4052 148.71 29.4701 147.542 29.4616 147.696C29.4909 147.168 29.5125 146.778 29.5334 146.398C29.6476 144.329 29.7258 142.859 29.7938 141.472C29.969 137.9 30.0561 135.245 30.0561 133C30.0561 127.891 25.9148 123.75 20.8061 123.75C15.6975 123.75 11.5561 127.891 11.5561 133Z" fill="#F6DDD6"/>
<path d="M81.181 131.5C81.181 139.076 85.3441 145.764 91.8904 150.523C97.5208 154.616 104.728 157.112 111.894 157.411C120.111 157.754 127.884 155.233 133.717 149.692C140.115 143.613 143.431 134.641 143.431 123.5C143.431 118.046 139.01 113.625 133.556 113.625C128.102 113.625 123.681 118.046 123.681 123.5C123.681 129.545 122.291 133.304 120.114 135.373C118.416 136.986 115.875 137.81 112.718 137.679C109.428 137.541 105.977 136.346 103.503 134.547C102.461 133.79 101.702 133.003 101.266 132.302C101.114 132.059 101.019 131.853 100.968 131.688C100.94 131.598 100.931 131.541 100.931 131.5C100.931 126.046 96.5098 121.625 91.056 121.625C85.6022 121.625 81.181 126.046 81.181 131.5Z" fill="#F6DDD6"/>
<path d="M28.806 167.875L42.056 128.937L48.056 110.687L59.306 113.187L80.306 110.687L104.556 172C104.556 172 104.556 174.625 102.931 176C101.306 177.375 95.556 187.25 95.556 187.25C95.556 187.25 68.556 191.25 62.306 191.25C56.056 191.25 49.806 190 49.806 190L37.306 185.437C37.306 185.437 31.181 176.125 29.681 174C28.181 171.875 28.806 167.875 28.806 167.875Z" fill="#0A0A08"/>
<rect x="52.306" y="101.25" width="20.75" height="29.25" rx="10.375" fill="#DBC0B8"/>
<path d="M47.056 144.937L26.306 188C26.306 188 7.05603 184.5 0.0560303 178C0.0560303 178 5.44415 158.5 8.05606 139.937C10.6679 121.375 26.306 115.5 26.306 115.5L42.556 112.437L47.056 144.937Z" fill="#657792"/>
<path d="M0.218025 180.148C-1.06114 175.251 3.50065 170.836 8.3536 172.273L21.2429 176.093C23.1998 176.672 24.8361 178.025 25.7738 179.838L31.2271 190.381C31.6103 191.122 31.8673 191.922 31.9873 192.748L34.9718 213.284C35.3436 215.842 33.7043 218.261 31.191 218.865L16.3281 222.433C13.6806 223.069 11.0113 221.469 10.3232 218.835L0.218025 180.148Z" fill="#657692"/>
<path d="M22.2644 206.563L10.3893 210.673C8.25369 211.412 7.09189 213.715 7.76599 215.872C8.47132 218.129 10.9064 219.352 13.1384 218.571L24.9993 214.42C27.2181 213.643 28.3576 211.196 27.5088 209.003C26.7006 206.915 24.3803 205.83 22.2644 206.563Z" fill="#8A9BB6"/>
<path d="M23.931 212.5C25.2427 212.5 26.306 211.437 26.306 210.125C26.306 208.813 25.2427 207.75 23.931 207.75C22.6194 207.75 21.556 208.813 21.556 210.125C21.556 211.437 22.6194 212.5 23.931 212.5Z" fill="#2E3A4D"/>
<path d="M27.806 173L13.556 164.75L10.306 171.5L27.806 173Z" fill="#576985"/>
<path d="M24.306 173.25L7.95862 175.171L10.5561 180.25L24.306 177V173.25Z" fill="#576985"/>
<path d="M22.054 134.954C21.5103 122.994 31.0601 113 43.0323 113H47.4778C49.6686 113 51.6688 114.245 52.6366 116.21L59.0561 129.25C59.0561 129.25 56.8061 148.25 56.8061 162.5C56.8061 173.869 54.8168 196.22 54.0126 204.791C53.8526 206.496 52.0626 207.514 50.5033 206.805L22.3361 194.002C21.3494 193.554 20.7641 192.521 20.8867 191.443L23.5561 168L22.054 134.954Z" fill="#7B899F"/>
<path d="M28.806 157.5V144L51.556 141.5C50.306 147.5 50.306 156 50.306 160.25C33.556 167 35.056 165 28.806 157.5Z" fill="#576985"/>
<path d="M51.306 141.5L27.806 139.75L26.306 145.25L35.806 151L48.556 146.5L51.306 141.5Z" fill="#8A9BB6"/>
<path d="M52.0901 207.437L21.0384 193.996C20.53 193.776 20.2271 193.248 20.2942 192.698L21.4311 183.375L54.8061 195.25L53.8321 206.398C53.7578 207.248 52.8731 207.775 52.0901 207.437Z" fill="#576985"/>
<path d="M60.306 131L50.181 108.25L39.681 111.375L40.806 137L60.306 131Z" fill="#576985"/>
<path d="M78.3446 145.187C78.3446 145.187 76.0561 188 102.056 188C128.056 188 125.056 176.5 128.056 169C128.056 169 127.766 152.813 117.055 137.5C106.345 122.187 99.0946 115.75 99.0946 115.75L82.8446 112.687L78.3446 145.187Z" fill="#546277"/>
<path d="M102.634 135.836C103.557 123.648 93.9165 113.25 81.6935 113.25H77.9228C75.732 113.25 73.7318 114.495 72.764 116.46L66.3445 129.5C66.3445 129.5 66.8445 147.25 66.3445 162.75C65.9415 175.247 69.5758 196.518 70.9993 204.293C71.2815 205.835 72.9025 206.709 74.357 206.125L100.41 195.661C101.396 195.265 102.024 194.289 101.976 193.228L100.595 162.75L102.634 135.836Z" fill="#7B899F"/>
<path d="M96.8443 157.5V144L74.0943 141.5C75.3443 147.5 75.3443 156 75.3443 160.25C92.0943 167 90.5943 165 96.8443 157.5Z" fill="#576985"/>
<path d="M74.3443 141.5L97.8443 139.75L99.3443 145.25L89.8443 151L77.0943 146.5L74.3443 141.5Z" fill="#8A9BB6"/>
<path d="M72.7408 207.443L101.715 196.201C102.217 196.007 102.538 195.512 102.511 194.974L102.056 185.75L69.3058 195.875L71.0553 206.481C71.1845 207.264 72.001 207.73 72.7408 207.443Z" fill="#576985"/>
<path d="M65.0941 131.25L75.2191 108.5L85.7191 111.625L84.5941 137.25L65.0941 131.25Z" fill="#576985"/>
<path d="M114.552 186.589C110.903 187.141 108.276 183.498 106.245 180.415C102.676 174.997 101.142 170.715 101.306 165.358C101.53 158.081 105.352 151.497 109.499 145.514L109.951 144.862L123.724 127.69C125.341 125.673 128.228 125.222 130.384 126.649L143.829 135.548C145.803 136.854 146.59 139.366 145.715 141.566L142.001 150.898C141.804 151.395 141.554 151.869 141.255 152.312L131.247 170.5C128.889 174.005 121.381 185.558 114.552 186.589Z" fill="#657692"/>
<path d="M118.644 137.684L129.135 144.603C131.021 145.847 133.555 145.368 134.856 143.52C136.217 141.586 135.706 138.909 133.727 137.614L123.213 130.731C121.246 129.444 118.611 130.03 117.388 132.038C116.224 133.95 116.775 136.452 118.644 137.684Z" fill="#8A9BB6"/>
<path d="M70.931 152C72.2427 152 73.306 150.937 73.306 149.625C73.306 148.313 72.2427 147.25 70.931 147.25C69.6194 147.25 68.556 148.313 68.556 149.625C68.556 150.937 69.6194 152 70.931 152Z" fill="#2E3A4D"/>
<path d="M70.931 169.5C72.2427 169.5 73.306 168.437 73.306 167.125C73.306 165.813 72.2427 164.75 70.931 164.75C69.6194 164.75 68.556 165.813 68.556 167.125C68.556 168.437 69.6194 169.5 70.931 169.5Z" fill="#2E3A4D"/>
<path d="M72.931 185.5C74.2427 185.5 75.306 184.437 75.306 183.125C75.306 181.813 74.2427 180.75 72.931 180.75C71.6194 180.75 70.556 181.813 70.556 183.125C70.556 184.437 71.6194 185.5 72.931 185.5Z" fill="#2E3A4D"/>
<path d="M75.681 202.25C76.9927 202.25 78.056 201.187 78.056 199.875C78.056 198.563 76.9927 197.5 75.681 197.5C74.3694 197.5 73.306 198.563 73.306 199.875C73.306 201.187 74.3694 202.25 75.681 202.25Z" fill="#2E3A4D"/>
<path d="M22.6823 40.7235C22.6823 20.3768 40.1188 3.88251 61.6281 3.88251C83.1373 3.88251 100.574 20.3768 100.574 40.7235L98.0738 77.3663C94.9331 101.135 78.5883 114.207 61.6281 114.207C44.6678 114.207 27.4856 98.3618 25.1823 77.3663L22.6823 40.7235Z" fill="#F6DDD6"/>
<path fill-rule="evenodd" clip-rule="evenodd" d="M51.806 87.5677V90.9917C51.806 96.2512 56.0698 100.515 61.3293 100.515C66.589 100.515 70.8528 96.2512 70.8528 90.9917V87.5677H51.806Z" fill="#393939"/>
<mask id="mask3_0_2095" style="mask-type:luminance" maskUnits="userSpaceOnUse" x="51" y="85" width="20" height="16">
<path fill-rule="evenodd" clip-rule="evenodd" d="M51.9318 85.9373C51.849 86.4425 51.806 86.961 51.806 87.4895V90.9918C51.806 96.2513 56.0698 100.515 61.3293 100.515C66.589 100.515 70.8528 96.2513 70.8528 90.9918V87.4895C70.8528 86.961 70.8095 86.4425 70.7268 85.9373H51.9318Z" fill="white"/>
</mask>
<g mask="url(#mask3_0_2095)">
<path d="M61.3293 102.755C64.5011 102.755 67.0723 101.355 67.0723 99.6277C67.0723 97.9003 64.5011 96.5 61.3293 96.5C58.1574 96.5 55.5862 97.9003 55.5862 99.6277C55.5862 101.355 58.1574 102.755 61.3293 102.755Z" fill="#FF6C6C"/>
<rect x="51.806" y="87" width="19.0466" height="4.5" fill="white"/>
</g>
<path d="M41.8917 54.4721C41.9437 54.4505 42.0645 54.404 42.2453 54.3407C42.559 54.2311 42.9161 54.1205 43.3076 54.0169C44.4215 53.7222 45.5742 53.546 46.6895 53.546C47.8005 53.546 48.9151 53.7208 49.9705 54.0125C50.3399 54.1147 50.6736 54.2235 50.9641 54.3312C51.13 54.3927 51.2385 54.4373 51.2824 54.4569C52.0387 54.795 52.9259 54.456 53.264 53.6996C53.602 52.9433 53.263 52.0562 52.5067 51.7181C52.4049 51.6726 52.2362 51.6033 52.007 51.5183C51.6391 51.3819 51.2246 51.2467 50.7698 51.121C49.4706 50.7618 48.0942 50.546 46.6895 50.546C45.2893 50.546 43.8874 50.7604 42.5404 51.1166C42.0707 51.2409 41.6398 51.3744 41.2552 51.5088C41.0172 51.5921 40.8421 51.6595 40.7379 51.7029C39.9732 52.0215 39.6115 52.8997 39.9302 53.6644C40.2488 54.4291 41.127 54.7908 41.8917 54.4721Z" fill="#46413D"/>
<path d="M71.3917 54.4721C71.4437 54.4505 71.5645 54.404 71.7453 54.3407C72.059 54.2311 72.4161 54.1205 72.8076 54.0169C73.9215 53.7222 75.0742 53.546 76.1895 53.546C77.3005 53.546 78.4151 53.7208 79.4705 54.0125C79.8399 54.1147 80.1736 54.2235 80.4641 54.3312C80.63 54.3927 80.7385 54.4373 80.7824 54.4569C81.5387 54.795 82.4259 54.456 82.764 53.6996C83.102 52.9433 82.763 52.0562 82.0067 51.7181C81.9049 51.6726 81.7362 51.6033 81.507 51.5183C81.1391 51.3819 80.7246 51.2467 80.2698 51.121C78.9706 50.7618 77.5942 50.546 76.1895 50.546C74.7893 50.546 73.3874 50.7604 72.0404 51.1166C71.5707 51.2409 71.1398 51.3744 70.7552 51.5088C70.5172 51.5921 70.3421 51.6595 70.2379 51.7029C69.4732 52.0215 69.1115 52.8997 69.4302 53.6644C69.7488 54.4291 70.627 54.7908 71.3917 54.4721Z" fill="#46413D"/>
<path d="M41.6645 63.8756L48.3985 62.8111C49.0804 62.7034 49.5458 62.0632 49.438 61.3813C49.3302 60.6994 48.69 60.234 48.0081 60.3418L41.2741 61.4063C40.5922 61.5141 40.1268 62.1543 40.2346 62.8362C40.3424 63.518 40.9826 63.9834 41.6645 63.8756Z" fill="black"/>
<path d="M73.6409 62.1589L80.3749 63.2234C81.0568 63.3312 81.6969 62.8658 81.8047 62.1839C81.9125 61.502 81.4471 60.8619 80.7652 60.7541L74.0312 59.6896C73.3493 59.5818 72.7092 60.0472 72.6014 60.7291C72.4936 61.411 72.959 62.0511 73.6409 62.1589Z" fill="black"/>
<path d="M43.928 61.5762V68.7707C43.928 70.4276 45.2712 71.7707 46.928 71.7707C48.5849 71.7707 49.928 70.4276 49.928 68.7707V61.5762C49.928 59.9194 48.5849 58.5762 46.928 58.5762C45.2712 58.5762 43.928 59.9194 43.928 61.5762Z" fill="black"/>
<path d="M72.3845 60.924V68.1188C72.3845 69.7756 73.7277 71.1188 75.3845 71.1188C77.0414 71.1188 78.3845 69.7756 78.3845 68.1188V60.924C78.3845 59.2672 77.0414 57.924 75.3845 57.924C73.7277 57.924 72.3845 59.2672 72.3845 60.924Z" fill="black"/>
<path d="M58.8125 68.5673C58.7298 69.1701 58.6365 69.5764 58.1936 71.355C58.0864 71.7857 58.0103 72.0982 57.9373 72.4117C57.3973 74.7314 57.2304 76.3167 57.5827 77.7858C58.1347 80.0875 59.9618 81.4137 62.6556 81.4137V77.1637C62.3741 77.1637 62.1535 77.1374 61.9908 77.0935C61.8928 77.0671 61.8366 77.0409 61.807 77.0194C61.7996 77.0141 61.7972 77.0115 61.7892 76.9984C61.7656 76.9598 61.7394 76.8939 61.7156 76.7947C61.5657 76.1696 61.6808 75.0756 62.0766 73.3754C62.1437 73.0872 62.2153 72.7932 62.3177 72.3818C62.8093 70.4074 62.9101 69.969 63.0231 69.1447L58.8125 68.5673Z" fill="#EBBAAA"/>
<path d="M88.0023 77.9297C87.8943 78.8065 85.8028 80.1025 83.4913 79.5185C81.1798 78.9341 79.5236 76.6911 79.6316 75.8143C79.7393 74.9372 81.9178 72.9357 84.2293 73.5197C86.5408 74.1038 88.1103 77.0526 88.0023 77.9297Z" fill="#F2CACA"/>
<path d="M33.9686 78.9297C34.0763 79.8065 36.1678 81.1025 38.4796 80.5185C40.7911 79.9341 42.4473 77.6911 42.3393 76.8143C42.2313 75.9372 40.0531 73.9357 37.7416 74.5197C35.4298 75.1038 33.8606 78.0526 33.9686 78.9297Z" fill="#F2CACA"/>
<path fill-rule="evenodd" clip-rule="evenodd" d="M34.556 51.9372C36.5002 49.8571 37.9847 45.9324 39.6567 41.512C43.36 31.7218 47.9829 19.5 60.556 19.5C63.7335 19.5 69.931 2.375 60.556 0C40.056 0 26.806 14.5 22.306 25.7913C13.0504 49.0158 10.8061 88.25 16.8061 115.291C17.9026 120.233 18.7719 123.897 19.556 126.614C19.5559 128.847 20.1586 131.104 21.6727 133.971C24.3558 139.051 27.5108 141.068 28.7528 141.441C28.188 138.799 28.5912 134.227 29.7822 129.926C32.441 134.855 35.5276 136.823 36.7528 137.191C36.1963 134.587 35.7423 130.148 35.4267 125.601C35.8914 128.025 36.8583 129.925 38.681 132.375C38.3054 130.618 38.8879 128.673 39.5375 126.503L39.5647 126.412C39.5947 126.312 39.6248 126.211 39.655 126.11C40.0804 126.831 40.5849 127.574 41.181 128.375C40.8054 126.618 41.3879 124.673 42.0375 122.503C43.3209 118.217 44.866 113.058 39.7978 106.75C38.5826 105.238 37.7618 103.025 36.793 100.412C36.5884 99.8607 36.3772 99.2911 36.1542 98.7066C32.3807 79.0447 30.0351 56.7745 34.556 51.9372Z" fill="#82521A"/>
<path d="M57.2302 2.76625C55.2116 3.09485 54.571 3.20268 53.7742 3.35492C52.6161 3.57618 51.7396 3.79216 50.8743 4.07716C49.6185 4.49076 48.389 5.04289 46.2395 6.13576C45.6241 6.44865 45.3789 7.20116 45.6918 7.81654C46.0047 8.43192 46.7572 8.67714 47.3726 8.36425C49.4177 7.32441 50.549 6.81637 51.6563 6.45169C52.4084 6.20402 53.1837 6.01297 54.2434 5.8105C55.0084 5.66434 55.6396 5.55809 57.6319 5.23377C58.3133 5.12284 58.7757 4.48055 58.6648 3.79916C58.5539 3.11778 57.9116 2.65532 57.2302 2.76625Z" fill="#AD6C21"/>
<path d="M57.8451 7.37795C54.3412 7.6196 52.7083 8.2154 49.5231 10.1872C48.9362 10.5505 48.7549 11.3209 49.1182 11.9079C49.4816 12.4949 50.252 12.6762 50.839 12.3128C53.7013 10.5409 54.956 10.0831 58.0171 9.87203C58.7058 9.82453 59.2256 9.22771 59.1781 8.53899C59.1306 7.85027 58.5338 7.33045 57.8451 7.37795Z" fill="#AD6C21"/>
<path fill-rule="evenodd" clip-rule="evenodd" d="M83.2931 38.0725C84.9298 42.9088 86.4914 47.5233 89.306 50.25C94.5094 59.5638 91.7417 86.9015 87.422 107.551C86.7186 108.64 86.0602 109.592 85.4311 110.375C80.4911 116.523 82.9881 121.737 85.0623 126.069C86.1933 128.431 87.1985 130.53 86.8041 132.375C88.6268 129.925 89.5937 128.025 90.0583 125.601C89.7428 130.148 89.2888 134.588 88.7323 137.191C89.9652 136.82 93.0833 134.83 95.7537 129.832C96.9649 134.16 97.3781 138.779 96.8091 141.441C98.0513 141.068 101.206 139.051 103.889 133.971C105.462 130.993 106.051 128.673 106.003 126.355C106.768 123.665 107.617 120.078 108.679 115.291C114.679 88.25 112.435 49.0158 103.179 25.7913C98.679 14.5 85.679 0 65.179 0C54.681 2.25 62.0018 19.5 65.179 19.5C77.0081 19.5 80.278 29.1627 83.2931 38.0725Z" fill="#82521A"/>
</svg>
